<?xml version="1.0" encoding="UTF-8"?><svg id="uuid-8b1a7434-3f25-4240-99ea-32802566268d" xmlns="http://www.w3.org/2000/svg" viewBox="0 0 412.46 412.46" width="16" height="16"><defs><style>.uuid-bfc5ec67-7ec3-46b7-a9be-83da559b2915{fill:#232a68;}</style></defs><g id="uuid-39a271af-9167-4f03-a49f-1d74ff91ecc8"><g><g><path class="uuid-bfc5ec67-7ec3-46b7-a9be-83da559b2915" d="M206.23,0C92.33,0,0,92.33,0,206.23s92.33,206.23,206.23,206.23,206.23-92.33,206.23-206.23S320.13,0,206.23,0Zm0,392.62c-102.94,0-186.39-83.45-186.39-186.39S103.29,19.84,206.23,19.84s186.39,83.45,186.39,186.39-83.45,186.39-186.39,186.39Z"/><path class="uuid-bfc5ec67-7ec3-46b7-a9be-83da559b2915" d="M206.23,30.89C109.39,30.89,30.89,109.39,30.89,206.23s78.5,175.34,175.34,175.34,175.34-78.5,175.34-175.34S303.06,30.89,206.23,30.89Zm0,341.48c-91.76,0-166.15-74.39-166.15-166.15S114.47,40.08,206.23,40.08s166.15,74.39,166.15,166.15-74.39,166.15-166.15,166.15Z"/></g><g><path class="uuid-bfc5ec67-7ec3-46b7-a9be-83da559b2915" d="M149.7,191.19c-2.12-11.04-11.25-17.17-22.12-17.17-14.71,0-25.71,11.38-25.71,32.08s11.04,32.08,25.67,32.08c10.79,0,19.96-6,22.17-16.92l13,.04c-2.79,16.87-16.5,28.62-35.25,28.62-22.17,0-38.37-16.54-38.37-43.83s16.29-43.83,38.37-43.83c18.04,0,32.33,10.67,35.25,28.92h-13Z"/><path class="uuid-bfc5ec67-7ec3-46b7-a9be-83da559b2915" d="M240.12,163.44v56.46c0,19.25-15.04,30.29-33.92,30.29s-33.87-11.04-33.87-30.29v-56.46h12.88v56.25c0,11.96,9.58,18.67,21,18.67s21.04-6.71,21.04-18.67v-56.25h12.88Z"/><path class="uuid-bfc5ec67-7ec3-46b7-a9be-83da559b2915" d="M252.31,163.44h56.76v11.08h-43.88v26h41.09v11.04h-41.09v26.12h44.38v11.08h-57.25v-85.33Z"/></g></g></g></svg>