<?xml version="1.0" encoding="UTF-8"?><svg id="uuid-6857a987-11d2-4b6a-a1f9-2ed61f6623e5" xmlns="http://www.w3.org/2000/svg" viewBox="0 0 258.06 258.06" width="16" height="16"><defs><style>.uuid-62dda07e-3f84-4a67-99f8-a9b02687cdec{fill:#fff;}</style></defs><g id="uuid-cb553cb7-7b19-445b-8c38-bb3c73899be7"><g><path class="uuid-62dda07e-3f84-4a67-99f8-a9b02687cdec" d="M129.03,0C57.77,0,0,57.77,0,129.03s57.77,129.03,129.03,129.03,129.03-57.77,129.03-129.03S200.29,0,129.03,0Zm0,245.65c-64.41,0-116.62-52.21-116.62-116.62S64.62,12.41,129.03,12.41s116.62,52.21,116.62,116.62-52.21,116.62-116.62,116.62Z"/><path class="uuid-62dda07e-3f84-4a67-99f8-a9b02687cdec" d="M129.03,19.33c-60.59,0-109.7,49.12-109.7,109.7s49.12,109.7,109.7,109.7,109.7-49.12,109.7-109.7S189.62,19.33,129.03,19.33Zm0,213.66c-57.41,0-103.95-46.54-103.95-103.95S71.62,25.08,129.03,25.08s103.95,46.54,103.95,103.95-46.54,103.95-103.95,103.95Z"/><path class="uuid-62dda07e-3f84-4a67-99f8-a9b02687cdec" d="M79.82,108.88c6.8,0,12.51,3.83,13.84,10.74h8.13c-1.82-11.42-10.77-18.09-22.05-18.09-13.82,0-24.01,10.35-24.01,27.42s10.14,27.42,24.01,27.42c11.73,0,20.31-7.35,22.05-17.91l-8.13-.03c-1.38,6.83-7.12,10.58-13.87,10.58-9.15,0-16.06-7.01-16.06-20.07s6.88-20.07,16.08-20.07Z"/><path class="uuid-62dda07e-3f84-4a67-99f8-a9b02687cdec" d="M142.18,137.45c0,7.48-5.97,11.68-13.16,11.68s-13.14-4.2-13.14-11.68v-35.19h-8.06v35.32c0,12.04,9.39,18.95,21.19,18.95s21.22-6.91,21.22-18.95v-35.32h-8.06v35.19Z"/><polygon class="uuid-62dda07e-3f84-4a67-99f8-a9b02687cdec" points="165.54 132.37 191.25 132.37 191.25 125.46 165.54 125.46 165.54 109.19 193 109.19 193 102.26 157.49 102.26 157.49 155.65 193.31 155.65 193.31 148.71 165.54 148.71 165.54 132.37"/></g></g></svg>